<svg xmlns="http://www.w3.org/2000/svg" xmlns:xlink="http://www.w3.org/1999/xlink" width="2048" zoomAndPan="magnify" viewBox="0 0 1536 1535.999932" height="2048" preserveAspectRatio="xMidYMid meet" version="1.0"><defs><clipPath id="925e97a7c0"><path d="M 768 0 C 343.84375 0 0 343.84375 0 768 C 0 1192.15625 343.84375 1536 768 1536 C 1192.15625 1536 1536 1192.15625 1536 768 C 1536 343.84375 1192.15625 0 768 0 Z M 768 0 " clip-rule="nonzero"/></clipPath><clipPath id="aa522d9859"><path d="M 186 631 L 1325 631 L 1325 1299.320312 L 186 1299.320312 Z M 186 631 " clip-rule="nonzero"/></clipPath><clipPath id="42a4ef388e"><path d="M 202 651 L 1340 651 L 1340 1319.113281 L 202 1319.113281 Z M 202 651 " clip-rule="nonzero"/></clipPath></defs><g clip-path="url(#925e97a7c0)"><rect x="-153.6" width="1843.2" fill="#00bf63" y="-153.599993" height="1843.199919" fill-opacity="1"/></g><g clip-path="url(#aa522d9859)"><path fill="#ffffff" d="M 1294.566406 660.914062 C 1275.457031 641.800781 1250.027344 631.289062 1222.988281 631.289062 C 1195.949219 631.289062 1170.519531 641.816406 1151.410156 660.925781 L 1010.042969 802.308594 C 1002.59375 797.863281 994.554688 794.453125 986.191406 792.046875 C 985.492188 791.835938 984.796875 791.640625 984.125 791.460938 C 980.726562 790.566406 977.300781 789.851562 973.808594 789.304688 C 972.871094 789.152344 971.917969 788.972656 970.96875 788.84375 C 966.734375 788.300781 962.441406 787.949219 958.078125 787.949219 L 958.066406 787.949219 C 958.066406 787.949219 958.066406 787.949219 958.050781 787.949219 L 521.253906 788.007812 C 480.476562 788.007812 441.75 803.621094 411.832031 832.433594 L 195.671875 1048.441406 C 189.730469 1054.382812 186.390625 1062.421875 186.390625 1070.839844 C 186.390625 1079.253906 189.71875 1087.308594 195.671875 1093.25 L 392.441406 1290.03125 C 398.382812 1295.972656 406.4375 1299.316406 414.839844 1299.316406 C 423.253906 1299.316406 431.308594 1295.972656 437.25 1290.03125 L 528.148438 1199.105469 L 857.703125 1199.105469 C 884.738281 1199.105469 910.140625 1188.578125 929.265625 1169.46875 L 1294.609375 804.125 C 1334.046875 764.660156 1334.046875 700.421875 1294.566406 660.914062 Z M 1249.800781 759.332031 L 884.460938 1124.664062 C 877.289062 1131.832031 867.796875 1135.761719 857.617188 1135.761719 L 515.007812 1135.761719 C 506.617188 1135.761719 498.550781 1139.105469 492.609375 1145.046875 L 414.824219 1222.832031 L 262.847656 1070.851562 L 456.179688 877.660156 C 473.808594 860.6875 496.917969 851.351562 521.269531 851.351562 L 958.050781 851.28125 C 969.25 851.28125 979.875 856.4375 987.199219 865.429688 C 987.5625 865.902344 988.066406 866.253906 988.472656 866.6875 C 993.324219 873.230469 995.964844 880.933594 995.964844 889.152344 C 995.964844 899.289062 992.035156 908.808594 984.863281 915.980469 C 977.707031 923.125 968.214844 927.066406 958.09375 927.066406 C 958.078125 927.066406 958.078125 927.066406 958.066406 927.066406 L 717.117188 927.066406 C 699.640625 927.066406 685.453125 941.242188 685.453125 958.730469 C 685.453125 976.234375 699.640625 990.410156 717.117188 990.410156 L 958.035156 990.410156 C 958.066406 990.410156 958.09375 990.410156 958.121094 990.410156 C 985.144531 990.410156 1010.546875 979.882812 1029.65625 960.757812 C 1048.78125 941.632812 1059.296875 916.203125 1059.296875 889.167969 C 1059.296875 875.816406 1056.554688 862.660156 1051.496094 850.441406 L 1196.1875 705.71875 C 1210.492188 691.433594 1235.488281 691.417969 1249.789062 705.71875 C 1264.578125 720.496094 1264.578125 744.542969 1249.800781 759.332031 Z M 1249.800781 759.332031 " fill-opacity="1" fill-rule="nonzero"/></g><path fill="#ffffff" d="M 729.183594 716.511719 C 730.21875 716.511719 731.222656 716.332031 732.242188 716.234375 C 732.914062 716.273438 733.558594 716.457031 734.242188 716.46875 C 736.285156 716.496094 738.285156 716.511719 740.308594 716.511719 C 829.265625 716.511719 912.617188 682.050781 975.582031 619.070312 C 1039.988281 554.679688 1074.574219 468.992188 1072.980469 377.746094 C 1072.6875 360.703125 1058.917969 346.945312 1041.875 346.640625 C 971.179688 345.382812 903.792969 365.972656 847.019531 405.285156 C 834.328125 338.363281 801.445312 277.128906 751.199219 228.589844 C 738.925781 216.734375 719.480469 216.722656 707.21875 228.589844 C 641.570312 291.949219 605.402344 377.019531 605.402344 468.097656 C 605.402344 559.207031 641.539062 644.261719 707.207031 707.621094 C 713.328125 713.546875 721.253906 716.511719 729.183594 716.511719 Z M 930.789062 574.277344 C 894.609375 610.445312 850.027344 634.8125 801.488281 645.996094 C 832.550781 597.164062 850.207031 541.074219 852.613281 482.050781 C 895.964844 441.734375 950 417.097656 1008.308594 411.269531 C 1002.128906 472.894531 975.21875 529.863281 930.789062 574.277344 Z M 729.195312 298.03125 C 768.367188 345.96875 789.617188 405.285156 789.617188 468.128906 C 789.617188 530.953125 768.355469 590.257812 729.183594 638.195312 C 689.996094 590.269531 668.730469 530.953125 668.730469 468.097656 C 668.730469 405.257812 689.996094 345.953125 729.195312 298.03125 Z M 729.195312 298.03125 " fill-opacity="1" fill-rule="nonzero"/><g clip-path="url(#42a4ef388e)"><path fill="#000000" d="M 1310.296875 680.78125 C 1291.183594 661.667969 1265.75 651.152344 1238.710938 651.152344 C 1211.671875 651.152344 1186.242188 661.683594 1167.128906 680.796875 L 1025.75 822.203125 C 1018.296875 817.753906 1010.257812 814.34375 1001.898438 811.9375 C 1001.199219 811.730469 1000.5 811.53125 999.828125 811.351562 C 996.429688 810.457031 993.003906 809.742188 989.511719 809.199219 C 988.574219 809.042969 987.621094 808.863281 986.671875 808.738281 C 982.433594 808.191406 978.144531 807.839844 973.78125 807.839844 L 973.765625 807.839844 C 973.765625 807.839844 973.765625 807.839844 973.753906 807.839844 L 536.921875 807.898438 C 496.140625 807.898438 457.410156 823.515625 427.492188 852.335938 L 211.3125 1068.378906 C 205.371094 1074.320312 202.027344 1082.359375 202.027344 1090.777344 C 202.027344 1099.195312 205.355469 1107.25 211.3125 1113.191406 L 408.097656 1310.011719 C 414.039062 1315.953125 422.09375 1319.296875 430.496094 1319.296875 C 438.914062 1319.296875 446.964844 1315.953125 452.910156 1310.011719 L 543.816406 1219.070312 L 873.394531 1219.070312 C 900.433594 1219.070312 925.839844 1208.539062 944.964844 1189.425781 L 1310.339844 824.019531 C 1349.78125 784.546875 1349.78125 720.296875 1310.296875 680.78125 Z M 1265.527344 779.21875 L 900.15625 1144.613281 C 892.984375 1151.785156 883.488281 1155.714844 873.3125 1155.714844 L 530.671875 1155.714844 C 522.285156 1155.714844 514.214844 1159.054688 508.273438 1165 L 430.484375 1242.796875 L 278.492188 1090.792969 L 471.839844 897.566406 C 489.46875 880.59375 512.582031 871.253906 536.9375 871.253906 L 973.753906 871.183594 C 984.953125 871.183594 995.578125 876.34375 1002.902344 885.332031 C 1003.265625 885.808594 1003.769531 886.15625 1004.175781 886.589844 C 1009.027344 893.136719 1011.671875 900.839844 1011.671875 909.0625 C 1011.671875 919.199219 1007.742188 928.722656 1000.570312 935.894531 C 993.410156 943.039062 983.917969 946.980469 973.796875 946.980469 C 973.78125 946.980469 973.78125 946.980469 973.765625 946.980469 L 732.800781 946.980469 C 715.324219 946.980469 701.132812 961.160156 701.132812 978.652344 C 701.132812 996.160156 715.324219 1010.335938 732.800781 1010.335938 L 973.738281 1010.335938 C 973.765625 1010.335938 973.796875 1010.335938 973.824219 1010.335938 C 1000.847656 1010.335938 1026.253906 999.808594 1045.363281 980.679688 C 1064.492188 961.550781 1075.003906 936.117188 1075.003906 909.074219 C 1075.003906 895.722656 1072.265625 882.566406 1067.203125 870.34375 L 1211.910156 725.597656 C 1226.210938 711.304688 1251.210938 711.292969 1265.515625 725.597656 C 1280.304688 740.375 1280.304688 764.425781 1265.527344 779.21875 Z M 1265.527344 779.21875 " fill-opacity="1" fill-rule="nonzero"/></g><path fill="#000000" d="M 744.867188 736.390625 C 745.898438 736.390625 746.90625 736.210938 747.925781 736.109375 C 748.597656 736.152344 749.242188 736.335938 749.925781 736.347656 C 751.96875 736.375 753.96875 736.390625 755.996094 736.390625 C 844.957031 736.390625 928.3125 701.921875 991.285156 638.933594 C 1055.699219 574.527344 1090.285156 488.828125 1088.691406 397.566406 C 1088.398438 380.519531 1074.628906 366.761719 1057.585938 366.453125 C 986.882812 365.195312 919.492188 385.792969 862.714844 425.109375 C 850.019531 358.175781 817.136719 296.933594 766.886719 248.386719 C 754.609375 236.527344 735.164062 236.515625 722.902344 248.386719 C 657.246094 311.753906 621.074219 396.839844 621.074219 487.933594 C 621.074219 579.058594 657.21875 664.128906 722.886719 727.496094 C 729.011719 733.425781 736.9375 736.390625 744.867188 736.390625 Z M 946.488281 594.132812 C 910.304688 630.304688 865.71875 654.675781 817.175781 665.863281 C 848.242188 617.023438 865.902344 560.921875 868.304688 501.890625 C 911.664062 461.5625 965.699219 436.925781 1024.015625 431.097656 C 1017.835938 492.730469 990.921875 549.710938 946.488281 594.132812 Z M 744.878906 317.835938 C 784.054688 365.78125 805.308594 425.109375 805.308594 487.960938 C 805.308594 550.800781 784.042969 610.113281 744.867188 658.0625 C 705.675781 610.128906 684.410156 550.800781 684.410156 487.933594 C 684.410156 425.082031 705.675781 365.769531 744.878906 317.835938 Z M 744.878906 317.835938 " fill-opacity="1" fill-rule="nonzero"/></svg>