<svg xmlns="http://www.w3.org/2000/svg" xmlns:xlink="http://www.w3.org/1999/xlink" width="2048" zoomAndPan="magnify" viewBox="0 0 1536 1535.999932" height="2048" preserveAspectRatio="xMidYMid meet" version="1.0"><defs><clipPath id="5dfc85a93e"><path d="M 768 0 C 343.84375 0 0 343.84375 0 768 C 0 1192.15625 343.84375 1536 768 1536 C 1192.15625 1536 1536 1192.15625 1536 768 C 1536 343.84375 1192.15625 0 768 0 Z M 768 0 " clip-rule="nonzero"/></clipPath><clipPath id="1a765868ad"><path d="M 191 192 L 1324 192 L 1324 1336.695312 L 191 1336.695312 Z M 191 192 " clip-rule="nonzero"/></clipPath><clipPath id="e8426f43b5"><path d="M 206 215 L 1340 215 L 1340 1359.71875 L 206 1359.71875 Z M 206 215 " clip-rule="nonzero"/></clipPath></defs><g clip-path="url(#5dfc85a93e)"><rect x="-153.6" width="1843.2" fill="#00bf63" y="-153.599993" height="1843.199919" fill-opacity="1"/></g><g clip-path="url(#1a765868ad)"><path fill="#ffffff" d="M 1206.910156 359.414062 C 1151.003906 293.34375 1079.847656 243.789062 1003.609375 215.835938 C 896.878906 176.445312 773.625 187.878906 663.082031 246.328125 C 557.617188 302.238281 482.652344 393.722656 455.96875 497.914062 C 453.425781 505.539062 452.15625 513.160156 450.886719 522.054688 C 448.34375 532.222656 447.074219 543.65625 445.804688 553.820312 C 440.71875 584.316406 435.636719 609.730469 424.203125 637.683594 C 393.707031 706.296875 327.632812 774.910156 280.621094 820.65625 C 215.820312 884.1875 184.054688 968.046875 192.949219 1055.722656 C 203.113281 1159.914062 269.183594 1255.210938 365.753906 1303.492188 C 410.226562 1326.367188 457.238281 1336.53125 506.792969 1336.53125 C 574.136719 1336.53125 642.75 1314.929688 706.28125 1273 L 1137.027344 987.105469 C 1239.949219 918.492188 1304.75 820.65625 1319.996094 708.839844 C 1336.515625 590.671875 1295.855469 462.335938 1206.910156 359.414062 Z M 1281.878906 703.757812 C 1267.902344 805.40625 1209.453125 891.808594 1115.425781 955.339844 L 683.410156 1239.960938 C 585.574219 1304.765625 475.027344 1314.929688 381 1267.917969 C 297.140625 1225.984375 238.691406 1142.125 229.796875 1050.636719 C 222.171875 974.402344 248.855469 901.976562 306.035156 846.066406 C 355.589844 797.78125 425.472656 725.355469 458.507812 651.660156 C 472.488281 618.625 477.570312 589.398438 483.921875 558.90625 C 485.191406 548.738281 487.734375 538.574219 489.003906 528.410156 C 490.273438 520.785156 491.546875 514.433594 494.085938 506.808594 C 518.230469 412.78125 585.574219 330.191406 682.140625 280.636719 C 743.128906 248.871094 809.203125 232.351562 874.003906 232.351562 C 914.664062 232.351562 955.324219 238.707031 992.175781 252.683594 C 1062.058594 278.09375 1126.859375 323.835938 1178.957031 384.828125 C 1259.007812 480.125 1297.125 595.753906 1281.878906 703.757812 Z M 1281.878906 703.757812 " fill-opacity="1" fill-rule="nonzero"/></g><path fill="#ffffff" d="M 966.761719 316.214844 C 890.523438 288.261719 795.226562 297.15625 713.90625 340.355469 C 635.128906 382.285156 580.488281 448.359375 561.429688 523.328125 C 557.617188 539.84375 555.078125 555.09375 552.535156 571.609375 C 539.828125 646.578125 525.851562 731.710938 355.589844 896.890625 C 272.996094 978.210938 292.058594 1084.945312 344.152344 1151.019531 C 381 1196.761719 438.179688 1228.527344 505.523438 1228.527344 C 548.722656 1228.527344 597.007812 1214.550781 645.292969 1182.785156 L 1076.035156 896.890625 C 1177.6875 829.546875 1225.96875 731.710938 1213.265625 622.4375 C 1198.015625 491.5625 1093.824219 363.226562 966.761719 316.214844 Z M 623.691406 1151.019531 C 519.5 1219.632812 422.933594 1187.867188 373.378906 1126.875 C 331.445312 1074.78125 314.929688 988.378906 381 924.847656 C 438.179688 868.9375 478.839844 821.925781 506.792969 781.265625 C 529.664062 828.277344 589.382812 838.441406 678.328125 852.421875 L 687.222656 853.691406 C 718.988281 860.042969 739.320312 880.375 746.941406 912.140625 C 763.460938 975.671875 731.695312 1070.96875 693.574219 1104.003906 Z M 786.332031 901.976562 C 783.789062 891.808594 779.980469 881.644531 774.894531 872.75 C 795.226562 848.609375 829.535156 833.359375 871.464844 830.820312 C 928.644531 827.007812 987.09375 847.335938 1026.480469 884.1875 L 771.085938 1053.179688 C 790.144531 1006.167969 799.039062 948.988281 786.332031 901.976562 Z M 1059.519531 862.585938 C 1011.234375 814.300781 940.078125 787.617188 868.921875 792.699219 C 819.367188 796.511719 778.707031 814.300781 750.753906 842.253906 C 735.507812 829.546875 717.71875 819.382812 694.847656 815.570312 L 684.683594 814.300781 C 572.867188 796.511719 538.558594 788.886719 536.019531 735.523438 C 572.867188 670.71875 581.761719 622.4375 588.113281 579.234375 C 590.65625 563.988281 593.195312 548.738281 597.007812 533.492188 C 613.527344 469.960938 661.808594 411.511719 730.425781 375.933594 C 774.898438 351.792969 824.449219 340.355469 871.464844 340.355469 C 899.417969 340.355469 927.371094 345.4375 952.785156 354.332031 C 1067.140625 396.265625 1159.898438 511.890625 1173.875 628.789062 C 1182.769531 693.589844 1168.792969 787.617188 1059.519531 862.585938 Z M 1059.519531 862.585938 " fill-opacity="1" fill-rule="nonzero"/><path fill="#ffffff" d="M 814.285156 471.230469 C 750.753906 471.230469 698.660156 523.328125 698.660156 586.859375 C 698.660156 650.390625 750.753906 702.484375 814.285156 702.484375 C 877.816406 702.484375 929.914062 650.390625 929.914062 586.859375 C 929.914062 522.054688 877.816406 471.230469 814.285156 471.230469 Z M 814.285156 663.097656 C 771.085938 663.097656 736.777344 628.789062 736.777344 585.585938 C 736.777344 543.65625 771.085938 508.078125 814.285156 508.078125 C 857.488281 508.078125 891.792969 542.386719 891.792969 585.585938 C 891.792969 628.789062 857.488281 663.097656 814.285156 663.097656 Z M 814.285156 663.097656 " fill-opacity="1" fill-rule="nonzero"/><g clip-path="url(#e8426f43b5)"><path fill="#000000" d="M 1222.488281 382.464844 C 1166.570312 316.382812 1095.40625 266.820312 1019.15625 238.863281 C 912.410156 199.46875 789.140625 210.90625 678.578125 269.363281 C 573.101562 325.277344 498.125 416.777344 471.4375 520.984375 C 468.894531 528.609375 467.625 536.234375 466.355469 545.128906 C 463.8125 555.296875 462.542969 566.734375 461.269531 576.898438 C 456.1875 607.398438 451.105469 632.816406 439.667969 660.773438 C 409.167969 729.398438 343.085938 798.019531 296.066406 843.769531 C 231.253906 907.308594 199.484375 991.183594 208.378906 1078.871094 C 218.546875 1183.074219 284.628906 1278.386719 381.210938 1326.675781 C 425.6875 1349.550781 472.707031 1359.71875 522.269531 1359.71875 C 589.625 1359.71875 658.246094 1338.113281 721.789062 1296.179688 L 1152.59375 1010.246094 C 1255.527344 941.621094 1320.339844 843.769531 1335.589844 731.9375 C 1352.109375 613.753906 1311.445312 485.402344 1222.488281 382.464844 Z M 1297.464844 726.855469 C 1283.484375 828.519531 1225.027344 914.933594 1130.988281 978.476562 L 698.914062 1263.136719 C 601.0625 1327.949219 490.5 1338.113281 396.460938 1291.09375 C 312.585938 1249.15625 254.128906 1165.285156 245.234375 1073.785156 C 237.609375 997.539062 264.296875 925.101562 321.480469 869.1875 C 371.042969 820.894531 440.9375 748.457031 473.980469 674.75 C 487.957031 641.710938 493.042969 612.480469 499.394531 581.984375 C 500.667969 571.816406 503.207031 561.648438 504.480469 551.484375 C 505.75 543.859375 507.019531 537.503906 509.5625 529.878906 C 533.707031 435.839844 601.0625 353.238281 697.640625 303.675781 C 758.640625 271.90625 824.722656 255.382812 889.535156 255.382812 C 930.199219 255.382812 970.867188 261.738281 1007.71875 275.71875 C 1077.613281 301.132812 1142.425781 346.882812 1194.527344 407.882812 C 1274.589844 503.191406 1312.714844 618.835938 1297.464844 726.855469 Z M 1297.464844 726.855469 " fill-opacity="1" fill-rule="nonzero"/></g><path fill="#000000" d="M 982.304688 339.257812 C 906.054688 311.300781 810.746094 320.195312 729.414062 363.402344 C 650.621094 405.339844 595.976562 471.421875 576.914062 546.398438 C 573.101562 562.921875 570.5625 578.171875 568.019531 594.691406 C 555.3125 669.667969 541.332031 754.8125 371.042969 920.019531 C 288.441406 1001.351562 307.503906 1108.097656 359.605469 1174.179688 C 396.460938 1219.929688 453.648438 1251.699219 521 1251.699219 C 564.207031 1251.699219 612.496094 1237.722656 660.789062 1205.949219 L 1091.59375 920.019531 C 1193.257812 852.664062 1241.550781 754.8125 1228.839844 645.523438 C 1213.589844 514.628906 1109.386719 386.277344 982.304688 339.257812 Z M 639.183594 1174.179688 C 534.976562 1242.804688 438.398438 1211.035156 388.835938 1150.035156 C 346.898438 1097.929688 330.378906 1011.515625 396.460938 947.976562 C 453.648438 892.058594 494.3125 845.039062 522.269531 804.375 C 545.144531 851.394531 604.871094 861.5625 693.828125 875.539062 L 702.726562 876.808594 C 734.496094 883.164062 754.828125 903.496094 762.453125 935.269531 C 778.972656 998.808594 747.203125 1094.117188 709.078125 1127.160156 Z M 801.847656 925.101562 C 799.308594 914.933594 795.496094 904.769531 790.410156 895.871094 C 810.746094 871.726562 845.054688 856.476562 886.992188 853.9375 C 944.179688 850.125 1002.636719 870.457031 1042.03125 907.308594 L 786.597656 1076.328125 C 805.660156 1029.308594 814.558594 972.121094 801.847656 925.101562 Z M 1075.074219 885.707031 C 1026.78125 837.414062 955.617188 810.726562 884.453125 815.8125 C 834.890625 819.625 794.222656 837.414062 766.265625 865.375 C 751.015625 852.664062 733.226562 842.5 710.351562 838.6875 L 700.183594 837.414062 C 588.351562 819.625 554.039062 812 551.5 758.625 C 588.351562 693.8125 597.25 645.523438 603.601562 602.316406 C 606.144531 587.066406 608.683594 571.816406 612.496094 556.566406 C 629.019531 493.027344 677.308594 434.570312 745.933594 398.984375 C 790.410156 374.839844 839.972656 363.402344 886.992188 363.402344 C 914.949219 363.402344 942.910156 368.488281 968.324219 377.382812 C 1082.699219 419.320312 1175.46875 534.960938 1189.445312 651.878906 C 1198.339844 716.6875 1184.363281 810.726562 1075.074219 885.707031 Z M 1075.074219 885.707031 " fill-opacity="1" fill-rule="nonzero"/><path fill="#000000" d="M 829.804688 494.296875 C 766.265625 494.296875 714.164062 546.398438 714.164062 609.941406 C 714.164062 673.480469 766.265625 725.585938 829.804688 725.585938 C 893.347656 725.585938 945.449219 673.480469 945.449219 609.941406 C 945.449219 545.128906 893.347656 494.296875 829.804688 494.296875 Z M 829.804688 686.1875 C 786.597656 686.1875 752.285156 651.878906 752.285156 608.667969 C 752.285156 566.734375 786.597656 531.148438 829.804688 531.148438 C 873.015625 531.148438 907.324219 565.460938 907.324219 608.667969 C 907.324219 651.878906 873.015625 686.1875 829.804688 686.1875 Z M 829.804688 686.1875 " fill-opacity="1" fill-rule="nonzero"/></svg>